<svg xmlns:dc="http://purl.org/dc/elements/1.1/" xmlns:cc="http://creativecommons.org/ns#" xmlns:rdf="http://www.w3.org/1999/02/22-rdf-syntax-ns#" xmlns:svg="http://www.w3.org/2000/svg" xmlns="http://www.w3.org/2000/svg" viewBox="0 0 73.333336 54.666668" height="54.666668" width="73.333336" xml:space="preserve" id="svg2"><metadata></metadata><defs id="defs6"><clipPath id="clipPath18" clipPathUnits="userSpaceOnUse"><path id="path16" d="M 0,41 H 55 V 0 H 0 Z"></path></clipPath></defs><g transform="matrix(1.3333333,0,0,-1.3333333,0,54.666667)" id="g10"><g id="g12"><g clip-path="url(#clipPath18)" id="g14"><g transform="translate(22.2092,18.145)" id="g20"><path id="path22" style="fill:#000000;fill-opacity:1;fill-rule:nonzero;stroke:none" d="m 0,0 c -1.105,0 -2.002,0.896 -2.002,2.002 0,1.105 0.897,2.001 2.002,2.001 1.105,0 2.002,-0.896 2.002,-2.001 C 2.002,0.896 1.105,0 0,0 m 0.002,6.028 c -2.224,0 -4.028,-1.803 -4.028,-4.027 0,-2.224 1.804,-4.027 4.028,-4.027 2.224,0 4.027,1.803 4.027,4.027 0,2.224 -1.803,4.027 -4.027,4.027"></path></g><g transform="translate(44.8532,19.0545)" id="g24"><path id="path26" style="fill:#000000;fill-opacity:1;fill-rule:nonzero;stroke:none" d="m 0,0 c 0,-0.113 -0.261,-0.563 -0.375,-0.663 -0.633,-0.559 -1.851,-0.381 -2.112,0.476 -0.019,0.062 -0.109,0.459 -0.109,0.484 v 4.71 H -4.97 V 0.148 c 0,-0.419 0.414,-1.488 0.68,-1.841 1.096,-1.454 4.558,-1.476 5.814,-0.202 0.287,0.291 0.85,1.294 0.85,1.672 v 5.23 H 0 Z"></path></g><g transform="translate(53.6306,20.7844)" id="g28"><path id="path30" style="fill:#000000;fill-opacity:1;fill-rule:nonzero;stroke:none" d="M 0,0 C -0.954,0.575 -2.173,0.546 -3.044,0.962 -3.863,1.353 -3.064,2.294 -2.026,1.831 -1.501,1.597 -1.647,1.289 -1.472,1.05 -1.335,0.862 0.324,1.147 0.67,1.063 1.028,1.18 0.484,2.242 0.312,2.463 -1.01,4.155 -5.979,3.794 -5.581,0.799 c 0.256,-1.934 2.777,-1.719 3.903,-2.402 1.068,-0.648 -0.141,-1.812 -1.291,-1.217 -0.607,0.314 -0.553,1.059 -0.619,1.123 -0.083,0.08 -1.999,-0.165 -2.297,-0.145 0.113,-1.181 0.678,-2.145 1.855,-2.485 1.321,-0.382 3.553,-0.337 4.495,0.81 C 1.351,-2.438 1.243,-0.749 0,0"></path></g><g transform="translate(33.0581,22.1331)" id="g32"><path id="path34" style="fill:#000000;fill-opacity:1;fill-rule:nonzero;stroke:none" d="m 0,0 h 2.003 v -5.675 c 0,-0.221 0.642,-0.038 0.776,-0.034 0.531,0.017 1.067,-0.019 1.598,-0.003 V 0 H 6.268 C 6.276,0 6.38,0.103 6.38,0.111 V 1.929 H 0 Z"></path></g><g transform="translate(26.159,22.1331)" id="g36"><path id="path38" style="fill:#000000;fill-opacity:1;fill-rule:nonzero;stroke:none" d="M 0,0 H 2.003 V -5.712 H 4.377 V 0 H 6.268 C 6.276,0 6.38,0.103 6.38,0.111 V 1.929 H 0 Z"></path></g><g transform="translate(18.2956,22.3185)" id="g40"><path id="path42" style="fill:#000000;fill-opacity:1;fill-rule:nonzero;stroke:none" d="M 0,0 V 1.632 C 0,1.64 -0.103,1.743 -0.111,1.743 H -6.38 v -1.928 h 2.003 v -5.713 h 2.374 v 5.601 c 0,0.008 0.103,0.112 0.111,0.112 h 1.818 C -0.098,-0.113 0,-0.025 0,0"></path></g><g transform="translate(4.9981,21.9441)" id="g44"><path id="path46" style="fill:#000000;fill-opacity:1;fill-rule:nonzero;stroke:none" d="m 0,0 c -0.799,0 -1.446,-0.648 -1.446,-1.446 0,-0.799 0.647,-1.447 1.446,-1.447 0.799,0 1.446,0.648 1.446,1.447 C 1.446,-0.648 0.799,0 0,0"></path></g><g transform="translate(4.9976,18.4139)" id="g48"><path id="path50" style="fill:#000000;fill-opacity:1;fill-rule:nonzero;stroke:none" d="m 0,0 c -0.717,0 -1.299,-0.581 -1.299,-1.299 0,-0.717 0.582,-1.298 1.299,-1.298 0.717,0 1.299,0.581 1.299,1.298 C 1.299,-0.581 0.717,0 0,0"></path></g><g transform="translate(4.9966,22.5863)" id="g52"><path id="path54" style="fill:#000000;fill-opacity:1;fill-rule:nonzero;stroke:none" d="M 0,0 C 0.717,0 1.298,0.581 1.298,1.298 1.298,2.015 0.717,2.597 0,2.597 -0.717,2.597 -1.298,2.015 -1.298,1.298 -1.298,0.581 -0.717,0 0,0"></path></g><g transform="translate(8.3739,21.7933)" id="g56"><path id="path58" style="fill:#000000;fill-opacity:1;fill-rule:nonzero;stroke:none" d="m 0,0 c -0.714,0 -1.293,-0.579 -1.293,-1.293 0,-0.714 0.579,-1.293 1.293,-1.293 0.714,0 1.293,0.579 1.293,1.293 C 1.293,-0.579 0.714,0 0,0"></path></g><g transform="translate(2.9075,20.4976)" id="g60"><path id="path62" style="fill:#000000;fill-opacity:1;fill-rule:nonzero;stroke:none" d="m 0,0 c 0,0.713 -0.578,1.292 -1.292,1.292 -0.713,0 -1.291,-0.579 -1.291,-1.292 0,-0.713 0.578,-1.292 1.291,-1.292 C -0.578,-1.292 0,-0.713 0,0"></path></g><g transform="translate(8.3025,22.3714)" id="g64"><path id="path66" style="fill:#000000;fill-opacity:1;fill-rule:nonzero;stroke:none" d="M 0,0 C 0.16,0.036 0.549,0.328 0.647,0.466 1.242,1.301 0.512,2.438 -0.486,2.266 -2.026,2 -1.577,-0.358 0,0"></path></g><g transform="translate(2.7668,24.4085)" id="g68"><path id="path70" style="fill:#000000;fill-opacity:1;fill-rule:nonzero;stroke:none" d="M 0,0 C -0.572,0.477 -1.709,0.211 -1.884,-0.552 -2.17,-1.801 -0.694,-2.616 0.138,-1.61 0.457,-1.223 0.391,-0.326 0,0"></path></g><g transform="translate(8.6879,18.4229)" id="g72"><path id="path74" style="fill:#000000;fill-opacity:1;fill-rule:nonzero;stroke:none" d="M 0,0 C -1.246,0.904 -2.533,-0.978 -1.415,-1.823 -0.084,-2.828 1.141,-0.827 0,0"></path></g><g transform="translate(0.8611,17.346)" id="g76"><path id="path78" style="fill:#000000;fill-opacity:1;fill-rule:nonzero;stroke:none" d="M 0,0 C 0.018,-0.158 0.151,-0.488 0.247,-0.606 0.825,-1.31 2.14,-1.02 2.23,-0.076 2.414,1.844 -0.188,1.604 0,0"></path></g></g></g></g></svg>